<svg xmlns="http://www.w3.org/2000/svg" width="50" height="50" viewBox="0 0 50 50"><circle fill="#FFF" cx="25" cy="25" r="25"/><path fill="#2EBFFF" d="M9.782 14.131h30.436v16.776H9.782z"/><path fill="#2EBFFF" d="M41.622 32.717H8.378a.594.594 0 0 1-.594-.593V12.731c0-.328.266-.593.594-.593h33.244c.327 0 .594.266.594.593v19.393a.595.595 0 0 1-.594.593zm-32.65-1.188h32.056V13.325H8.972v18.204z"/><path fill="#FFF" d="M24.787 16.56c-5.848 0-10.589 5.673-10.589 5.673s4.741 5.672 10.589 5.672c5.849 0 10.59-5.672 10.59-5.672s-4.741-5.673-10.59-5.673zm0 9.039a3.505 3.505 0 1 1 0-7.01 3.505 3.505 0 0 1 0 7.01z"/><path fill="#2EBFFF" d="M21.636 32.717h6.728v4.75h-6.728z"/><path fill="#2EBFFF" d="M17.282 36.675h15.436v1.188H17.282z"/></svg>