<svg xmlns="http://www.w3.org/2000/svg" width="241.5" height="138" viewBox="0 0 241.5 138"><path fill="#C1C1C1" d="M240.5 124H.5v7h240v-7z"/><path fill="#FFF" d="M240.5 130.75v.25H.5v-.056c0 .175.542.056.758 1.056h239.285c.383-1-.043-1.049-.043-1.25z"/><path fill="#C1C1C1" d="M8.895 134H234.56c1.708 0 4.698-1 5.983-2H1.258c.977 1 4.002 2 7.637 2z"/><path fill="#FFF" d="M221.267 127.332c0 .16.13.29.29.29h7.224a.29.29 0 0 0 .29-.29.29.29 0 0 0-.29-.288h-7.224a.29.29 0 0 0-.29.288z"/><path fill="#C1C1C1" d="M28.484 124.154c0 2.154 1.748 3.9 3.902 3.9h177.428a3.901 3.901 0 0 0 3.902-3.9V6.542c0-2.154-1.747-3.9-3.902-3.9H32.387a3.902 3.902 0 0 0-3.902 3.9v117.612z"/><path fill="#FFF" stroke="#0C232E" stroke-linecap="round" stroke-linejoin="round" stroke-miterlimit="10" d="M35.918 10.416h170.365v107.076H35.918z"/><path fill="#FFF" d="M137.645 124.353s.111 2.371-2.914 2.371h-28.414s-2.603-.182-2.603-2.36l33.931-.011z"/><circle fill="#FFF" cx="121.101" cy="6.442" r="1.686"/><path fill="none" stroke="#0C232E" stroke-width=".5" stroke-linecap="round" stroke-linejoin="round" stroke-miterlimit="10" d="M240.255 124.266H.787"/><path fill="#FF8724" d="M151.477 42.243v1.305c-.029.058-.071.113-.086.175-.404 1.649-1.48 2.653-3.063 3.135-1.532.466-3.104.426-4.677.257-.369-.04-.662-.003-.947.288a312.644 312.644 0 0 1-5.215 5.214c-.408.396-.484.729-.328 1.261 1.102 3.773 1.125 7.565.271 11.404-.312 1.406-.428 2.877-.449 4.321-.015 1.141.08 2.28.883 3.299 1.439 1.823 1.943 4.79-.068 6.91 1.673 1.653 3.343 3.312 5.033 4.952.151.146.445.209.672.207.902-.007 1.805-.108 2.705-.078 1.422.048 2.776.334 3.91 1.312.737.636 1.064 1.473 1.359 2.346v1.305c-.039.088-.092.173-.12.265-.595 1.902-1.843 2.894-3.843 2.996-.406.02-.396.229-.406.513-.074 1.804-1.167 3.197-2.903 3.715-.124.036-.241.096-.361.145h-1.306c-.059-.028-.116-.069-.18-.084-1.676-.403-2.674-1.51-3.152-3.112-.461-1.535-.408-3.109-.238-4.679.037-.347-.025-.608-.275-.856a1990.268 1990.268 0 0 1-7.556-7.543c-.214-.215-.415-.261-.6-.068-.363.379-.777.75-1.009 1.208-.57 1.128-.631 2.369-.656 3.618-.027 1.322-.32 2.591-1.107 3.689-.332.462-.775.792-1.402.709-.594-.077-.912-.476-1.07-.997a8.09 8.09 0 0 1-.266-1.319c-.104-.829-.152-1.665-.28-2.488-.031-.202-.28-.37-.429-.553-.161.166-.428.311-.465.5-.171.882-.3 1.772-.396 2.666-.074.677-.178 1.326-.664 1.847-.696.747-1.832.629-2.293-.268-.227-.441-.427-.914-.535-1.396a38.104 38.104 0 0 1-.492-2.813c-.044-.305-.149-.577-.434-.566-.179.007-.441.255-.502.446-.132.426-.15.886-.232 1.328-.152.821-.273 1.649-.487 2.452-.126.475-.351.989-.929 1.08-.945.149-1.668-.296-1.914-1.22-.151-.573-.172-1.182-.243-1.776-.071-.593-.094-1.197-.22-1.778-.034-.163-.354-.356-.551-.368-.271-.014-.481.171-.48.517a5.86 5.86 0 0 1-.078 1.1c-.18.933-.34 1.875-.612 2.782-.229.764-.779.974-1.546.755-.889-.252-1.289-.931-1.448-1.755-.151-.786-.199-1.592-.312-2.387-.207-1.456-.454-2.902-1.135-4.287-.146.117-.271.197-.373.299-2.199 2.197-4.4 4.39-6.581 6.604-.172.173-.271.494-.272.746-.002.918.104 1.838.073 2.754-.049 1.444-.372 2.808-1.382 3.936-.619.695-1.442.986-2.275 1.28h-1.205c-.124-.044-.246-.094-.373-.13-1.223-.348-2.165-1.05-2.633-2.251-.235-.608-.331-1.272-.5-1.956.035.017.007-.003-.023-.009a1.318 1.318 0 0 0-.198-.022c-1.899-.055-3.153-.997-3.804-2.769-.062-.167-.135-.332-.203-.497v-1.305c.031-.058.074-.112.089-.174.407-1.671 1.499-2.676 3.105-3.162 1.537-.465 3.112-.411 4.683-.244.426.046.691-.092.961-.375.459-.486.936-.956 1.412-1.425.936-.923 1.875-1.843 2.789-2.739-.604-.469-1.222-.814-1.664-1.316-1.295-1.469-1.24-3.165-.506-4.839.363-.828 1.006-1.527 1.456-2.323.573-1.015.901-2.148.585-3.28-.643-2.295-1.165-4.604-1.312-6.987-.202-3.242-.023-6.427 1.459-9.408.129-.259.117-.434-.107-.655-1.416-1.397-2.804-2.824-4.228-4.213-.184-.18-.523-.276-.792-.277-.918-.006-1.84.1-2.756.066-1.426-.053-2.774-.375-3.89-1.37-.696-.621-.995-1.442-1.284-2.279v-1.305c.038-.072.088-.14.11-.216.579-1.937 1.823-2.943 3.845-3.053.402-.022.4-.226.411-.511.067-1.771 1.161-3.179 2.857-3.693.142-.042.274-.106.411-.161h1.305c.074.033.147.077.225.097 1.6.415 2.59 1.46 3.076 3.004.492 1.564.433 3.17.27 4.774-.035.344.016.61.272.858a61.098 61.098 0 0 1 1.624 1.636c.658.685 1.305 1.38 1.967 2.081.25-.212.396-.32.524-.447 2.301-2.292 5.116-3.598 8.251-4.272 2.994-.646 6.011-.612 9.033-.23 4.353.549 8.106 2.283 11.062 5.593.187.208.314.168.489-.008 1.462-1.468 2.936-2.922 4.383-4.404.16-.164.246-.47.244-.708-.002-.886-.104-1.772-.079-2.655.042-1.477.337-2.881 1.379-4.036.624-.691 1.435-1.009 2.28-1.282h1.306c.12.049.237.108.36.146 1.185.357 2.086 1.064 2.543 2.223.238.607.33 1.271.503 1.959.026.003.122.021.22.025 1.818.073 3.092.917 3.746 2.642.078.207.172.419.259.632zM110.951 75.8c.572-.114 1.158-.178 1.712-.35 1.616-.502 2.862-1.479 3.442-3.103.745-2.087-.09-4.389-2.005-5.726-2.229-1.554-4.597-1.838-7.05-.611-2.174 1.087-3.32 3.489-2.328 5.966.924 2.299 3.589 3.894 6.229 3.824zm15.973-.051c2.06.008 3.731-.665 5.059-1.953 2.58-2.503 1.901-6.429-1.368-7.923-2.831-1.292-6.278-.41-8.13 2.08-1.146 1.54-1.262 3.689-.226 5.28 1.139 1.749 2.875 2.404 4.665 2.516zm-7.897 3.147c.097.107.156.185.228.252.712.681 1.523.655 2.128-.108.545-.69.636-1.49.416-2.328-.398-1.521-1.508-2.529-2.594-3.548-.071-.067-.391 0-.486.105-.662.727-1.338 1.448-1.926 2.234-.537.719-.727 1.577-.578 2.476.125.758.495 1.363 1.264 1.604.66.209 1.113-.18 1.548-.687z"/></svg>