<svg xmlns="http://www.w3.org/2000/svg" width="168" height="169" viewBox="0 0 168 169"><path fill="none" stroke="#FFF" stroke-width="5" stroke-miterlimit="10" d="M53.152 165.077c-1.56 0-3.733-.905-4.832-2.012l-42.9-43.23c-1.099-1.107-1.997-3.288-1.997-4.847v-61.32c0-1.559.901-3.736 2.005-4.839l42.91-42.902c1.104-1.103 3.28-2.004 4.84-2.004h61.318c1.56 0 3.74.898 4.848 1.997l43.221 42.894c1.107 1.098 2.013 3.272 2.013 4.831v61.369c0 1.559-.901 3.737-2.005 4.839l-43.211 43.22c-1.104 1.103-3.28 2.005-4.84 2.005h-61.37z"/><path fill="#FFF" d="M57.971 153.507c-1.56 0-3.733-.905-4.832-2.012L16.99 115.068c-1.099-1.107-1.997-3.288-1.997-4.847V58.463c0-1.559.901-3.736 2.005-4.839l36.133-36.127c1.104-1.103 3.28-2.004 4.84-2.004h51.758c1.56 0 3.74.898 4.848 1.997l36.418 36.143c1.107 1.098 2.013 3.272 2.013 4.831v51.758c0 1.559-.901 3.737-2.005 4.839l-36.434 36.442c-1.104 1.103-3.28 2.005-4.84 2.005H57.971z"/></svg>