<svg xmlns="http://www.w3.org/2000/svg" width="80" height="80" viewBox="0 0 80 80"><path fill="#FFC200" d="M84 4.383C84-1.239 80.239-5 74.617-5H5.519C-.103-5-5-1.239-5 4.383v69.099C-5 79.103-.103 84 5.519 84h69.099C80.239 84 84 79.103 84 73.482V4.383z"/><g fill-rule="evenodd" clip-rule="evenodd"><path d="M62.197 60.904c-5.238 5.389-16.416 5.955-22.18-3.09-3.207 4.822-7.646 7.277-13.465 6.996-3.271-.158-7.059-1.888-8.883-4.012 5.127 3.298 10.041 3.287 14.557-.858 3.061-2.809 4.436-7.749 2.043-12.816.982-.572 1.979-1.152 2.959-1.725 2.303 1.657 3.451 1.65 5.533-.035.971.561 1.953 1.128 2.959 1.711-2.15 5.055-1.592 9.687 2.605 13.324 4.292 3.722 9.021 3.535 13.872.505zM39.383 36.439c0 .534-.033 1.003.006 1.466.088 1.055.016 1.829-1.221 2.377-1.316.582-1.775 1.921-1.609 3.411.031.266-.125.684-.334.822-.826.547-1.705 1.011-2.615 1.535-1.711-2.36-3.939-3.926-6.777-4.535-2.262-.485-4.475-.256-6.607.667-4.574 1.976-6.715 5.959-6.467 12.042-2.473-7.8 3.135-17.832 13.639-18.229-2.492-5.09-2.484-10.102.568-14.923 1.879-2.973 4.596-4.917 7.996-5.903-5.168 2.658-7.783 6.795-6.578 12.599 1.079 5.196 4.723 7.921 9.999 8.671zm1.289-.013c6.215-.706 9.611-5.195 10.17-9.563.549-4.323-1.453-9.241-6.82-11.614 2.795.38 7.381 3.412 9.281 8.181 1.703 4.272 1.396 8.457-.717 12.546 10.527.267 16.15 10.601 13.643 18.262.391-2.582.029-5.037-1.24-7.328-1.285-2.317-3.191-3.935-5.645-4.907-3.711-1.473-9.203-.977-12.965 4.004l-2.998-1.729c.242-2.488-.193-3.28-2.367-4.463-.16-.086-.322-.338-.328-.518-.032-.935-.014-1.869-.014-2.871z"/><path d="M32.795 31.431c3.596-2.75 10.725-2.757 14.266-.125-.832 1.09-1.895 1.883-3.125 2.44-.223.102-.566.031-.824-.052-2.072-.662-4.129-.648-6.207-.015-.342.103-.844.084-1.127-.1-1.01-.649-1.956-1.396-2.983-2.148zm13.75 23.836c-.084-1.454-.178-2.75-.211-4.049-.008-.244.186-.551.377-.732 1.486-1.402 2.49-3.073 2.971-5.063.059-.237.186-.519.373-.655 1.092-.809 2.301-1.36 3.662-1.565.484 4.499-2.842 9.957-7.172 12.064zM26.25 43.195c1.447.219 2.719.807 3.857 1.699.135.106.174.358.223.553.467 1.894 1.422 3.497 2.789 4.886.309.317.574.836.574 1.261-.002 1.183-.154 2.364-.25 3.599-3.927-1.396-7.793-7.919-7.193-11.998z"/></g><linearGradient id="a" gradientUnits="userSpaceOnUse" x1="26.145" y1="19.859" x2="51.416" y2="55.96"><stop offset="0" stop-color="#fff"/><stop offset="1" stop-color="#fff" stop-opacity="0"/></linearGradient><path opacity=".3" fill="url(#a)" d="M77 11.017C77 6.941 74.65 4 71.305 4H9.486C6.14 4 3 6.941 3 11.017V68.58C3 72.655 6.14 76 9.486 76h61.818C74.65 76 77 72.655 77 68.58V11.017z"/></svg>