<svg xmlns="http://www.w3.org/2000/svg" width="80" height="80" viewBox="0 0 80 80"><path fill="#BCCAD8" d="M-1-3h82v85H-1z"/><circle fill="#363B44" cx="40" cy="40" r="31.333"/><circle fill="none" stroke="#E5EDF9" stroke-miterlimit="10" cx="40" cy="40" r="27.926"/><path fill="#00EF93" d="M21.906 39.748h-3.38c0-4.294.437-6.173 1.845-9.394l3.09 1.479c-1.187 2.713-1.555 4.296-1.555 7.915z"/><path fill="#02EF92" d="M21.907 39.5l-3.38-.046c.043-4.265.501-6.128 1.942-9.32l3.073 1.513c-1.214 2.689-1.598 4.26-1.635 7.853z"/><path fill="#04EF91" d="M21.912 39.256l-3.38-.092c.087-4.235.562-6.084 2.036-9.247l3.058 1.547c-1.242 2.665-1.641 4.224-1.714 7.792z"/><path fill="#06EF90" d="M21.919 39.014l-3.379-.137c.131-4.207.624-6.042 2.131-9.175l3.043 1.582c-1.27 2.639-1.685 4.185-1.795 7.73z"/><path fill="#08EE8E" d="M21.928 38.772l-3.378-.183c.174-4.178.687-5.998 2.226-9.102l3.025 1.615c-1.297 2.616-1.727 4.15-1.873 7.67z"/><path fill="#0AEE8D" d="M21.937 38.531l-3.374-.227c.217-4.147.747-5.953 2.317-9.027l3.01 1.648c-1.324 2.591-1.771 4.112-1.953 7.606z"/><path fill="#0CEE8C" d="M21.952 38.293l-3.372-.271c.259-4.118.807-5.909 2.408-8.954l2.993 1.681c-1.349 2.565-1.811 4.074-2.029 7.544z"/><path fill="#0EEE8B" d="M21.967 38.058l-3.367-.316c.301-4.089.868-5.865 2.501-8.88l2.974 1.714c-1.376 2.54-1.854 4.036-2.108 7.482z"/><path fill="#10EE8A" d="M21.986 37.823l-3.365-.36c.343-4.06.928-5.821 2.591-8.807l2.958 1.746c-1.401 2.516-1.895 4.001-2.184 7.421z"/><path fill="#12EE89" d="M22.007 37.589l-3.36-.403c.384-4.03.986-5.777 2.681-8.734l2.939 1.778c-1.427 2.492-1.936 3.963-2.26 7.359z"/><path fill="#14EE88" d="M22.03 37.358l-3.358-.446c.426-4.001 1.048-5.733 2.772-8.66l2.92 1.81c-1.452 2.466-1.975 3.925-2.334 7.296z"/><path fill="#16ED86" d="M22.056 37.129l-3.352-.489c.466-3.972 1.104-5.689 2.858-8.587l2.9 1.841c-1.477 2.441-2.014 3.889-2.406 7.235z"/><path fill="#18ED85" d="M22.084 36.9l-3.348-.532c.507-3.942 1.163-5.645 2.946-8.513 1.152.749 1.729 1.123 2.884 1.872-1.503 2.417-2.055 3.852-2.482 7.173z"/><path fill="#1AED84" d="M22.114 36.674l-3.34-.574c.547-3.912 1.22-5.601 3.032-8.439l2.863 1.903c-1.526 2.391-2.094 3.813-2.555 7.11z"/><path fill="#1CED83" d="M22.146 36.45l-3.333-.616c.587-3.884 1.277-5.557 3.12-8.367l2.844 1.933c-1.552 2.368-2.137 3.778-2.631 7.05z"/><path fill="#1EED82" d="M22.183 36.228l-3.33-.657c.627-3.854 1.335-5.514 3.206-8.294l2.824 1.963c-1.576 2.343-2.172 3.739-2.7 6.988z"/><path fill="#20ED81" d="M22.219 36.006l-3.32-.699c.666-3.825 1.39-5.469 3.288-8.22l2.804 1.993c-1.6 2.318-2.211 3.703-2.772 6.926z"/><path fill="#21ED7F" d="M22.259 35.786l-3.312-.74c.705-3.795 1.445-5.424 3.372-8.146 1.111.809 1.67 1.213 2.783 2.022-1.623 2.293-2.249 3.666-2.843 6.864z"/><path fill="#23EC7E" d="M22.3 35.568l-3.306-.781c.744-3.766 1.502-5.38 3.456-8.072l2.762 2.051c-1.647 2.269-2.285 3.63-2.912 6.802z"/><path fill="#25EC7D" d="M22.345 35.354l-3.298-.821c.782-3.737 1.557-5.337 3.539-8l2.74 2.081c-1.67 2.242-2.322 3.591-2.981 6.74z"/><path fill="#27EC7C" d="M22.391 35.138l-3.29-.861c.82-3.708 1.611-5.293 3.621-7.927l2.72 2.109c-1.694 2.219-2.36 3.555-3.051 6.679z"/><path fill="#29EC7B" d="M22.438 34.925l-3.28-.901c.858-3.678 1.666-5.248 3.703-7.853l2.695 2.137c-1.715 2.195-2.394 3.518-3.118 6.617z"/><path fill="#2BEC7A" d="M22.489 34.714l-3.27-.94c.896-3.648 1.719-5.205 3.781-7.779l2.674 2.165c-1.736 2.169-2.43 3.48-3.185 6.554z"/><path fill="#2DEC79" d="M22.542 34.505l-3.261-.979c.933-3.619 1.772-5.161 3.861-7.706l2.654 2.192c-1.759 2.145-2.468 3.444-3.254 6.493z"/><path fill="#2FEC77" d="M22.598 34.298l-3.251-1.018c.97-3.59 1.823-5.117 3.938-7.633l2.631 2.22c-1.782 2.12-2.501 3.406-3.318 6.431z"/><path fill="#31EB76" d="M22.654 34.091l-3.242-1.057c1.007-3.561 1.879-5.072 4.02-7.559l2.607 2.247c-1.804 2.095-2.536 3.369-3.385 6.369z"/><path fill="#33EB75" d="M22.714 33.887l-3.23-1.095c1.043-3.531 1.929-5.028 4.095-7.486l2.585 2.273c-1.826 2.072-2.571 3.333-3.45 6.308z"/><path fill="#35EB74" d="M22.774 33.685l-3.218-1.133c1.079-3.502 1.979-4.985 4.171-7.413l2.562 2.3c-1.846 2.046-2.605 3.295-3.515 6.246z"/><path fill="#37EB73" d="M22.838 33.484l-3.207-1.17c1.115-3.473 2.032-4.941 4.248-7.34l2.537 2.325c-1.867 2.022-2.639 3.259-3.578 6.185z"/><path fill="#39EB72" d="M22.902 33.285l-3.193-1.208c1.15-3.443 2.081-4.896 4.321-7.266 1.004.94 1.509 1.41 2.515 2.351-1.887 1.997-2.673 3.222-3.643 6.123z"/><path fill="#3BEB71" d="M22.97 33.087l-3.183-1.244c1.186-3.414 2.134-4.852 4.398-7.192l2.489 2.376c-1.907 1.972-2.705 3.184-3.704 6.06z"/><path fill="#3DEB6F" d="M23.039 32.892l-3.167-1.281c1.221-3.385 2.18-4.809 4.469-7.12l2.464 2.402c-1.928 1.947-2.738 3.147-3.766 5.999z"/><path fill="#3FEB6E" d="M23.109 32.697l-3.154-1.317c1.255-3.355 2.229-4.764 4.541-7.045l2.439 2.426c-1.947 1.922-2.768 3.11-3.826 5.936z"/><path fill="#41EA6D" d="M23.184 32.504l-3.143-1.354c1.289-3.325 2.28-4.719 4.615-6.971l2.414 2.451c-1.966 1.898-2.799 3.073-3.886 5.874z"/><path fill="#43EA6C" d="M23.257 32.314l-3.126-1.389c1.323-3.297 2.329-4.677 4.688-6.899l2.388 2.475c-1.988 1.873-2.835 3.036-3.95 5.813z"/><path fill="#45EA6B" d="M23.335 32.126l-3.111-1.424c1.356-3.268 2.374-4.633 4.755-6.826l2.364 2.499c-2.006 1.847-2.864 2.998-4.008 5.751z"/><path fill="#47EA6A" d="M23.416 31.938l-3.1-1.459c1.39-3.238 2.423-4.588 4.825-6.752l2.339 2.522c-2.024 1.823-2.892 2.961-4.064 5.689z"/><path fill="#49EA69" d="M23.495 31.752l-3.082-1.494c1.423-3.208 2.47-4.544 4.895-6.678.924 1.018 1.388 1.526 2.312 2.545-2.043 1.798-2.926 2.924-4.125 5.627z"/><path fill="#4BEA67" d="M23.579 31.568l-3.067-1.528c1.456-3.179 2.516-4.5 4.962-6.605.913 1.027 1.372 1.541 2.287 2.568-2.062 1.774-2.955 2.887-4.182 5.565z"/><path fill="#4DEA66" d="M23.663 31.387l-3.052-1.562c1.488-3.15 2.562-4.457 5.031-6.533.902 1.036 1.354 1.554 2.259 2.59-2.079 1.75-2.984 2.85-4.238 5.505z"/><path fill="#4FE965" d="M23.75 31.206l-3.034-1.596c1.521-3.12 2.606-4.412 5.096-6.458l2.231 2.612c-2.098 1.724-3.012 2.813-4.293 5.442z"/><path fill="#51E964" d="M23.839 31.026l-3.02-1.629c1.552-3.09 2.651-4.367 5.161-6.384l2.207 2.634c-2.114 1.7-3.041 2.775-4.348 5.379z"/><path fill="#53E963" d="M23.929 30.849l-3-1.662c1.584-3.062 2.696-4.324 5.227-6.312l2.178 2.656c-2.133 1.675-3.07 2.739-4.405 5.318z"/><path fill="#55E962" d="M24.021 30.674l-2.983-1.695c1.615-3.032 2.74-4.28 5.291-6.239l2.152 2.677c-2.15 1.651-3.099 2.702-4.46 5.257z"/><path fill="#57E960" d="M24.115 30.5l-2.967-1.728c1.646-3.002 2.785-4.235 5.356-6.165.849 1.079 1.272 1.619 2.122 2.698-2.165 1.626-3.124 2.665-4.511 5.195z"/><path fill="#59E95F" d="M24.211 30.328l-2.949-1.76c1.677-2.973 2.827-4.191 5.418-6.091l2.096 2.719c-2.183 1.6-3.152 2.626-4.565 5.132z"/><path fill="#5BE95E" d="M24.309 30.158l-2.931-1.792c1.707-2.944 2.87-4.147 5.48-6.018l2.066 2.739c-2.197 1.576-3.177 2.59-4.615 5.071z"/><path fill="#5DE85D" d="M24.407 29.989l-2.913-1.823c1.737-2.915 2.913-4.104 5.542-5.945l2.039 2.759c-2.215 1.551-3.204 2.553-4.668 5.009z"/><path fill="#5FE85C" d="M24.508 29.822l-2.893-1.854c1.767-2.886 2.954-4.06 5.602-5.872l2.012 2.778c-2.231 1.527-3.233 2.517-4.721 4.948z"/><path fill="#60E85B" d="M24.611 29.656c-1.15-.754-1.727-1.131-2.875-1.885 1.797-2.856 2.996-4.016 5.662-5.798l1.982 2.798c-2.245 1.501-3.255 2.479-4.769 4.885z"/><path fill="#62E85A" d="M24.714 29.493c-1.143-.767-1.714-1.149-2.854-1.916 1.826-2.827 3.038-3.972 5.723-5.725l1.954 2.817c-2.263 1.477-3.285 2.442-4.823 4.824z"/><path fill="#64E858" d="M24.821 29.331c-1.135-.779-1.702-1.167-2.835-1.946 1.854-2.797 3.076-3.928 5.778-5.652.769 1.134 1.155 1.701 1.926 2.835-2.276 1.453-3.306 2.406-4.869 4.763z"/><path fill="#66E857" d="M24.928 29.17l-2.813-1.976c1.883-2.768 3.116-3.884 5.837-5.578.757 1.141 1.139 1.712 1.896 2.854-2.291 1.428-3.334 2.368-4.92 4.7z"/><path fill="#68E856" d="M25.039 29.011l-2.795-2.006c1.911-2.738 3.157-3.839 5.894-5.503l1.864 2.872c-2.306 1.403-3.354 2.33-4.963 4.637z"/><path fill="#6AE755" d="M25.149 28.855l-2.774-2.035c1.939-2.709 3.195-3.795 5.949-5.431.733 1.155 1.103 1.733 1.837 2.89-2.32 1.378-3.378 2.293-5.012 4.576z"/><path fill="#6CE754" d="M25.262 28.7l-2.752-2.064c1.967-2.68 3.234-3.751 6.005-5.357a4596.17 4596.17 0 0 0 1.806 2.907c-2.335 1.353-3.403 2.256-5.059 4.514z"/><path fill="#6EE753" d="M25.375 28.546a2161.03 2161.03 0 0 1-2.73-2.093c1.994-2.65 3.272-3.708 6.06-5.284l1.776 2.924c-2.348 1.329-3.426 2.22-5.106 4.453z"/><path fill="#70E752" d="M25.49 28.395l-2.708-2.121c2.021-2.622 3.311-3.664 6.113-5.211l1.746 2.941c-2.361 1.304-3.448 2.182-5.151 4.391z"/><path fill="#72E750" d="M25.608 28.244l-2.688-2.149c2.048-2.592 3.35-3.619 6.168-5.137l1.716 2.958c-2.374 1.279-3.47 2.145-5.196 4.328z"/><path fill="#74E74F" d="M25.728 28.096c-1.067-.871-1.601-1.306-2.666-2.177 2.074-2.562 3.385-3.575 6.219-5.064l1.686 2.974c-2.389 1.254-3.492 2.108-5.239 4.267z"/><path fill="#76E74E" d="M25.846 27.949l-2.641-2.204c2.101-2.533 3.422-3.531 6.271-4.991l1.653 2.99c-2.4 1.23-3.514 2.07-5.283 4.205z"/><path fill="#78E64D" d="M25.969 27.804l-2.62-2.231c2.126-2.503 3.457-3.487 6.32-4.917.649 1.202.976 1.803 1.626 3.005-2.412 1.205-3.535 2.033-5.326 4.143z"/><path fill="#7AE64C" d="M26.091 27.661l-2.595-2.258c2.151-2.474 3.493-3.442 6.37-4.843l1.594 3.02c-2.425 1.179-3.557 1.996-5.369 4.081z"/><path fill="#7CE64B" d="M26.218 27.519c-1.03-.914-1.547-1.371-2.575-2.285 2.177-2.445 3.529-3.399 6.422-4.771l1.562 3.036c-2.439 1.156-3.575 1.959-5.409 4.02z"/><path fill="#7EE64A" d="M26.344 27.379l-2.551-2.311c2.202-2.416 3.561-3.355 6.467-4.697.611 1.219.921 1.83 1.534 3.05-2.449 1.131-3.596 1.923-5.45 3.958z"/><path fill="#80E648" d="M26.471 27.241l-2.527-2.337c2.227-2.386 3.598-3.311 6.517-4.623l1.501 3.064c-2.461 1.106-3.616 1.885-5.491 3.896z"/><path fill="#82E647" d="M26.6 27.104l-2.503-2.362c2.251-2.357 3.63-3.268 6.562-4.551.587 1.231.883 1.847 1.471 3.079-2.472 1.081-3.634 1.848-5.53 3.834z"/><path fill="#84E646" d="M26.729 26.969l-2.477-2.387c2.274-2.327 3.663-3.223 6.608-4.477.573 1.236.863 1.854 1.438 3.092-2.482 1.056-3.652 1.811-5.569 3.772z"/><path fill="#86E545" d="M26.861 26.836l-2.454-2.412c2.299-2.298 3.698-3.179 6.657-4.404l1.406 3.105c-2.492 1.032-3.672 1.775-5.609 3.711z"/><path fill="#88E544" d="M26.996 26.705l-2.432-2.437c2.322-2.269 3.73-3.135 6.701-4.33.548 1.247.824 1.871 1.373 3.118-2.503 1.007-3.685 1.736-5.642 3.649z"/><path fill="#8AE543" d="M27.13 26.574l-2.403-2.461c2.345-2.239 3.761-3.09 6.743-4.256l1.342 3.131c-2.515.982-3.707 1.7-5.682 3.586z"/><path fill="#8CE541" d="M27.265 26.447l-2.378-2.485c2.368-2.21 3.792-3.047 6.787-4.184.522 1.257.787 1.885 1.311 3.143-2.525.958-3.725 1.663-5.72 3.526z"/><path fill="#8EE540" d="M27.402 26.32l-2.353-2.508c2.391-2.181 3.822-3.003 6.829-4.11.51 1.262.768 1.893 1.278 3.156-2.533.932-3.74 1.624-5.754 3.462z"/><path fill="#90E53F" d="M27.541 26.195a4957.62 4957.62 0 0 1-2.328-2.532c2.412-2.151 3.854-2.958 6.871-4.036.497 1.267.749 1.9 1.247 3.167-2.543.909-3.758 1.588-5.79 3.401z"/><path fill="#92E53E" d="M27.679 26.072c-.921-1.022-1.38-1.533-2.299-2.555 2.435-2.122 3.884-2.915 6.912-3.963l1.212 3.179c-2.552.883-3.775 1.551-5.825 3.339z"/><path fill="#94E43D" d="M27.82 25.951l-2.273-2.578c2.456-2.093 3.912-2.871 6.951-3.89l1.181 3.19c-2.561.859-3.79 1.515-5.859 3.278z"/><path fill="#96E43C" d="M27.963 25.831c-.899-1.041-1.351-1.56-2.248-2.6 2.478-2.063 3.942-2.827 6.992-3.817l1.146 3.201c-2.57.834-3.803 1.477-5.89 3.216z"/><path fill="#98E43B" d="M28.105 25.713l-2.22-2.622c2.499-2.034 3.972-2.783 7.031-3.743.444 1.284.668 1.926 1.113 3.211-2.578.809-3.818 1.441-5.924 3.154z"/><path fill="#9AE439" d="M28.251 25.597l-2.194-2.644c2.52-2.005 4.001-2.739 7.07-3.67l1.081 3.221c-2.587.785-3.835 1.404-5.957 3.093z"/><path fill="#9CE438" d="M28.396 25.481l-2.168-2.665c2.539-1.975 4.027-2.693 7.105-3.595l1.05 3.231c-2.593.76-3.847 1.365-5.987 3.029z"/><path fill="#9EE437" d="M28.543 25.369l-2.141-2.686c2.56-1.946 4.057-2.65 7.145-3.523.405 1.296.607 1.944 1.014 3.241-2.603.735-3.861 1.328-6.018 2.968z"/><path fill="#9FE436" d="M28.689 25.258l-2.11-2.707c2.58-1.917 4.082-2.606 7.179-3.449l.983 3.25c-2.609.71-3.879 1.291-6.052 2.906z"/><path fill="#A1E335" d="M28.839 25.148l-2.083-2.728c2.6-1.887 4.108-2.562 7.214-3.376l.948 3.259c-2.616.686-3.89 1.255-6.079 2.845z"/><path fill="#A3E334" d="M28.989 25.041l-2.055-2.748c2.618-1.858 4.136-2.519 7.249-3.303l.915 3.268c-2.623.66-3.903 1.217-6.109 2.783z"/><path fill="#A5E333" d="M29.143 24.934c-.812-1.107-1.22-1.661-2.029-2.767 2.638-1.828 4.16-2.475 7.281-3.229l.881 3.276c-2.63.636-3.912 1.18-6.133 2.72z"/><path fill="#A7E331" d="M29.293 24.83c-.8-1.115-1.2-1.672-1.998-2.787 2.656-1.799 4.185-2.431 7.313-3.156.338 1.313.51 1.97.849 3.284-2.637.611-3.927 1.143-6.164 2.659z"/><path fill="#A9E330" d="M29.446 24.727c-.788-1.123-1.183-1.684-1.969-2.806 2.674-1.77 4.212-2.386 7.348-3.083l.813 3.292c-2.642.586-3.939 1.106-6.192 2.597z"/><path fill="#ABE32F" d="M29.604 24.626l-1.942-2.825c2.692-1.74 4.235-2.342 7.378-3.009l.779 3.299c-2.65.561-3.948 1.069-6.215 2.535z"/><path fill="#ADE32E" d="M29.758 24.526l-1.913-2.843c2.71-1.711 4.259-2.298 7.408-2.936l.746 3.306c-2.654.537-3.958 1.032-6.241 2.473z"/><path fill="#AFE22D" d="M29.914 24.429l-1.883-2.861c2.728-1.682 4.279-2.254 7.436-2.863.285 1.325.431 1.987.716 3.312-2.661.512-3.971.995-6.269 2.412z"/><path fill="#B1E22C" d="M30.07 24.333l-1.853-2.88c2.744-1.652 4.305-2.21 7.467-2.789l.679 3.319c-2.665.488-3.98.957-6.293 2.35z"/><path fill="#B3E22A" d="M30.231 24.239c-.73-1.159-1.099-1.739-1.827-2.897 2.761-1.623 4.328-2.166 7.496-2.716l.645 3.325c-2.67.463-3.987.92-6.314 2.288z"/><path fill="#B5E229" d="M30.389 24.146c-.717-1.167-1.078-1.749-1.794-2.915 2.778-1.594 4.351-2.123 7.524-2.643l.609 3.331c-2.673.438-3.999.884-6.339 2.227z"/><path fill="#B7E228" d="M30.551 24.055c-.705-1.173-1.062-1.759-1.766-2.932 2.794-1.564 4.371-2.078 7.55-2.568l.575 3.336c-2.679.413-4.006.846-6.359 2.164z"/><path fill="#B9E227" d="M30.712 23.965l-1.732-2.948c2.81-1.535 4.388-2.034 7.571-2.495.216 1.336.327 2.004.544 3.341-2.683.389-4.017.809-6.383 2.102z"/><path fill="#BBE226" d="M30.874 23.878l-1.704-2.964c2.825-1.505 4.412-1.99 7.601-2.422.202 1.338.306 2.007.509 3.346-2.687.363-4.025.771-6.406 2.04z"/><path fill="#BDE225" d="M31.035 23.792l-1.672-2.981c2.84-1.476 4.433-1.946 7.625-2.349.188 1.34.284 2.01.474 3.351-2.691.34-4.034.735-6.427 1.979z"/><path fill="#BFE124" d="M31.199 23.708l-1.641-2.996c2.855-1.447 4.451-1.902 7.647-2.275l.438 3.354c-2.692.314-4.039.698-6.444 1.917z"/><path fill="#C1E122" d="M31.366 23.625c-.645-1.205-.969-1.808-1.612-3.012 2.869-1.417 4.471-1.858 7.671-2.202l.405 3.359c-2.697.29-4.046.661-6.464 1.855z"/><path fill="#C3E121" d="M31.531 23.544l-1.58-3.027c2.884-1.388 4.488-1.814 7.691-2.128.147 1.345.223 2.017.371 3.362-2.699.266-4.051.624-6.482 1.793z"/><path fill="#C5E120" d="M31.697 23.466l-1.55-3.042c2.897-1.359 4.507-1.77 7.714-2.055l.337 3.366c-2.702.24-4.058.586-6.501 1.731z"/><path fill="#C7E11F" d="M31.865 23.388l-1.518-3.056c2.912-1.33 4.525-1.726 7.734-1.982.119 1.347.181 2.021.301 3.369-2.704.215-4.063.549-6.517 1.669z"/><path fill="#C9E11E" d="M32.033 23.312l-1.486-3.07c2.925-1.3 4.542-1.682 7.754-1.908.106 1.348.16 2.021.268 3.371-2.707.191-4.071.512-6.536 1.607z"/><path fill="#CBE11D" d="M32.2 23.239l-1.453-3.084c2.938-1.271 4.56-1.638 7.774-1.835l.232 3.373c-2.708.165-4.075.475-6.553 1.546z"/><path fill="#CDE01C" d="M32.372 23.166l-1.422-3.098c2.951-1.241 4.576-1.594 7.792-1.762.078 1.35.119 2.024.198 3.375-2.71.142-4.081.439-6.568 1.485z"/><path fill="#CFE01A" d="M32.543 23.096c-.557-1.245-.838-1.867-1.394-3.111 2.964-1.212 4.594-1.55 7.812-1.688.064 1.351.099 2.025.164 3.376-2.711.117-4.084.401-6.582 1.423z"/><path fill="#D1E019" d="M32.713 23.026l-1.36-3.124c2.977-1.183 4.611-1.505 7.83-1.615l.128 3.378c-2.713.093-4.089.365-6.598 1.361z"/><path fill="#D3E018" d="M32.884 22.959c-.531-1.255-.798-1.882-1.327-3.136 2.988-1.153 4.624-1.461 7.844-1.542.037 1.352.057 2.027.095 3.379-2.714.068-4.094.327-6.612 1.299z"/><path fill="#D5E017" d="M33.057 22.894l-1.294-3.148c3-1.124 4.636-1.418 7.856-1.468.023 1.352.036 2.027.061 3.38-2.713.041-4.095.289-6.623 1.236z"/><path fill="#D7E016" d="M33.229 22.83c-.506-1.265-.759-1.896-1.263-3.16 3.012-1.095 4.654-1.374 7.875-1.395l.025 3.38c-2.713.017-4.099.252-6.637 1.175z"/><path fill="#D9E015" d="M33.404 22.768l-1.23-3.172c3.022-1.065 4.668-1.33 7.889-1.321l-.011 3.38c-2.714-.008-4.101.215-6.648 1.113z"/><path fill="#DBDF14" d="M33.58 22.707c-.479-1.274-.721-1.91-1.199-3.183 3.033-1.036 4.68-1.286 7.901-1.249l-.046 3.38c-2.715-.031-4.099.179-6.656 1.052z"/><path fill="#DDDF12" d="M33.754 22.648l-1.164-3.195c3.044-1.007 4.693-1.241 7.914-1.174l-.082 3.379c-2.714-.056-4.103.142-6.668.99z"/><path fill="#DEDF11" d="M33.929 22.591l-1.131-3.205c3.053-.977 4.705-1.197 7.924-1.101l-.113 3.379c-2.713-.081-4.107.104-6.68.927z"/><path fill="#E0DF10" d="M34.105 22.536c-.439-1.287-.661-1.93-1.1-3.216 3.063-.948 4.719-1.153 7.938-1.027-.061 1.351-.091 2.026-.15 3.377-2.712-.106-4.105.067-6.688.866z"/><path fill="#E2DF0F" d="M34.282 22.482c-.428-1.291-.64-1.936-1.066-3.226 3.073-.918 4.729-1.11 7.945-.955-.074 1.35-.108 2.025-.182 3.376-2.71-.13-4.107.031-6.697.805z"/><path fill="#E4DF0E" d="M34.459 22.43l-1.033-3.235c3.083-.889 4.742-1.066 7.957-.881l-.219 3.374c-2.709-.156-4.107-.007-6.705.742z"/><path fill="#E6DF0D" d="M34.637 22.38l-1-3.245c3.092-.86 4.75-1.021 7.964-.808-.102 1.349-.151 2.023-.252 3.372-2.708-.18-4.107-.044-6.712.681z"/><path fill="#E8DE0B" d="M34.817 22.331l-.968-3.253c3.101-.831 4.761-.978 7.972-.734l-.288 3.37c-2.705-.207-4.103-.083-6.716.617z"/><path fill="#EADE0A" d="M34.997 22.284c-.373-1.306-.562-1.958-.935-3.263 3.107-.801 4.769-.933 7.977-.661l-.321 3.367c-2.702-.229-4.102-.118-6.721.557z"/><path fill="#ECDE09" d="M35.174 22.238c-.36-1.309-.542-1.963-.901-3.271 3.116-.772 4.783-.889 7.988-.587-.144 1.345-.214 2.018-.356 3.364-2.702-.255-4.104-.156-6.731.494z"/><path fill="#EEDE08" d="M35.354 22.195l-.867-3.279c3.125-.742 4.79-.845 7.992-.514l-.39 3.36c-2.698-.28-4.103-.193-6.735.433z"/><path fill="#F0DE07" d="M35.534 22.153c-.333-1.315-.501-1.972-.833-3.287 3.132-.713 4.799-.801 7.997-.441l-.427 3.356c-2.695-.303-4.097-.229-6.737.372z"/><path fill="#F2DE06" d="M35.715 22.113l-.8-3.294c3.139-.684 4.805-.757 7.999-.367-.184 1.341-.273 2.01-.457 3.352-2.691-.329-4.097-.267-6.742.309z"/><path fill="#F4DE05" d="M35.896 22.074l-.767-3.302c3.146-.654 4.812-.713 8.003-.294l-.493 3.348c-2.687-.352-4.091-.303-6.743.248z"/><path fill="#F6DD03" d="M36.078 22.037c-.293-1.324-.441-1.985-.733-3.309 3.152-.625 4.823-.669 8.009-.22l-.528 3.343c-2.684-.377-4.092-.34-6.748.186z"/><path fill="#F8DD02" d="M36.259 22.002l-.697-3.315c3.159-.596 4.827-.625 8.009-.147-.226 1.335-.338 2.002-.562 3.338-2.681-.402-4.088-.378-6.75.124z"/><path fill="#FADD01" d="M36.441 21.969l-.664-3.321c3.165-.566 4.835-.581 8.011-.074l-.597 3.333c-2.675-.428-4.083-.415-6.75.062z"/><path fill="#FCDD00" d="M36.624 21.937l-.629-3.328c3.171-.537 4.84-.537 8.011 0l-.631 3.328c-2.672-.452-4.079-.452-6.751 0z"/><path fill="#FCDB00" d="M36.807 21.907c-.238-1.333-.359-2-.598-3.333 3.176-.508 4.847-.493 8.012.073-.267 1.329-.398 1.993-.664 3.322-2.667-.477-4.075-.49-6.75-.062z"/><path fill="#FCDA01" d="M36.99 21.878c-.225-1.336-.34-2.003-.563-3.338 3.181-.479 4.851-.449 8.011.146-.28 1.326-.421 1.988-.7 3.315-2.663-.501-4.067-.525-6.748-.123z"/><path fill="#FCD801" d="M37.174 21.852c-.211-1.338-.319-2.006-.529-3.343 3.186-.449 4.855-.405 8.008.22l-.732 3.309c-2.657-.527-4.063-.564-6.747-.186z"/><path fill="#FBD602" d="M37.355 21.827l-.492-3.348c3.19-.419 4.859-.361 8.006.293l-.767 3.302c-2.651-.551-4.058-.6-6.747-.247z"/><path fill="#FBD402" d="M37.541 21.804l-.458-3.353c3.194-.39 4.86-.317 8 .367l-.8 3.294c-2.644-.575-4.051-.637-6.742-.308z"/><path fill="#FBD303" d="M37.726 21.782l-.425-3.357c3.198-.361 4.864-.272 7.997.44l-.834 3.287c-2.64-.6-4.043-.673-6.738-.37z"/><path fill="#FBD103" d="M37.908 21.762l-.39-3.36c3.201-.332 4.866-.229 7.991.514-.348 1.312-.519 1.967-.865 3.279-2.632-.626-4.038-.712-6.736-.433z"/><path fill="#FBCF04" d="M38.093 21.744c-.143-1.346-.213-2.018-.354-3.363 3.205-.302 4.868-.185 7.985.587l-.9 3.271c-2.627-.651-4.031-.75-6.731-.495z"/><path fill="#FBCD04" d="M38.277 21.727l-.32-3.367c3.208-.272 4.87-.141 7.979.66L45 22.283c-2.618-.674-4.02-.785-6.723-.556z"/><path fill="#FBCC05" d="M38.463 21.712l-.287-3.37c3.211-.243 4.873-.096 7.974.734-.388 1.302-.58 1.952-.967 3.254-2.613-.699-4.014-.823-6.72-.618z"/><path fill="#FACA05" d="M38.647 21.699c-.102-1.349-.151-2.023-.252-3.372 3.213-.214 4.873-.052 7.966.807-.4 1.298-.602 1.946-1.002 3.245-2.605-.724-4.004-.86-6.712-.68z"/><path fill="#FAC806" d="M38.832 21.688l-.217-3.374c3.216-.185 4.874-.008 7.957.881l-1.036 3.235c-2.598-.749-3.994-.898-6.704-.742z"/><path fill="#FAC706" d="M39.019 21.678l-.183-3.375c3.217-.155 4.871.035 7.945.954l-1.068 3.226c-2.59-.775-3.984-.936-6.694-.805z"/><path fill="#FAC507" d="M39.204 21.67l-.146-3.377c3.218-.126 4.87.08 7.934 1.027l-1.101 3.215c-2.581-.798-3.975-.971-6.687-.865z"/><path fill="#FAC307" d="M39.389 21.664l-.113-3.379c3.219-.097 4.871.124 7.926 1.101l-1.134 3.206c-2.574-.824-3.966-1.01-6.679-.928z"/><path fill="#FAC108" d="M39.574 21.659l-.079-3.379c3.221-.067 4.87.167 7.915 1.174l-1.166 3.195c-2.564-.849-3.956-1.047-6.67-.99z"/><path fill="#FAC008" d="M39.76 21.656l-.045-3.38c3.221-.038 4.869.211 7.902 1.247l-1.2 3.184c-2.556-.873-3.943-1.083-6.657-1.051z"/><path fill="#F9BE09" d="M39.947 21.654c-.004-1.353-.009-2.028-.012-3.38 3.221-.008 4.867.256 7.891 1.321l-1.233 3.172c-2.546-.897-3.932-1.12-6.646-1.113z"/><path fill="#F9BC09" d="M40.132 21.655l.024-3.38c3.221.021 4.864.3 7.876 1.395l-1.267 3.161c-2.536-.924-3.919-1.159-6.633-1.176z"/><path fill="#F9BA0A" d="M40.317 21.657c.023-1.353.033-2.028.058-3.38 3.221.05 4.86.344 7.861 1.468l-1.297 3.149c-2.527-.947-3.908-1.195-6.622-1.237z"/><path fill="#F9B90A" d="M40.502 21.661l.094-3.379c3.22.08 4.855.388 7.845 1.541l-1.328 3.137c-2.519-.973-3.898-1.232-6.611-1.299z"/><path fill="#F9B70A" d="M40.689 21.666c.051-1.352.075-2.027.127-3.378 3.219.109 4.852.432 7.829 1.614l-1.36 3.124c-2.508-.996-3.883-1.268-6.596-1.36z"/><path fill="#F9B50B" d="M40.873 21.673l.163-3.376c3.218.138 4.847.476 7.812 1.688l-1.394 3.111c-2.497-1.022-3.87-1.306-6.581-1.423z"/><path fill="#F9B40B" d="M41.059 21.682l.198-3.375c3.216.167 4.841.52 7.793 1.761l-1.425 3.098c-2.487-1.046-3.856-1.343-6.566-1.484z"/><path fill="#F8B20C" d="M41.244 21.692l.232-3.373c3.215.197 4.836.564 7.775 1.834l-1.456 3.084c-2.475-1.07-3.843-1.379-6.551-1.545z"/><path fill="#F8B00C" d="M41.428 21.705c.106-1.349.16-2.023.268-3.371 3.212.227 4.83.608 7.757 1.908l-1.489 3.07c-2.466-1.095-3.83-1.416-6.536-1.607z"/><path fill="#F8AE0D" d="M41.613 21.718l.302-3.368c3.209.256 4.825.652 7.738 1.981l-1.522 3.056c-2.453-1.119-3.814-1.453-6.518-1.669z"/><path fill="#F8AD0D" d="M41.798 21.734l.337-3.365c3.207.285 4.816.696 7.716 2.055l-1.552 3.042c-2.442-1.146-3.799-1.492-6.501-1.732z"/><path fill="#F8AB0E" d="M41.985 21.751l.369-3.362c3.203.314 4.81.74 7.694 2.128l-1.583 3.027c-2.429-1.169-3.78-1.527-6.48-1.793z"/><path fill="#F8A90E" d="M42.167 21.771l.405-3.359c3.201.344 4.803.784 7.674 2.202l-1.615 3.012c-2.417-1.195-3.768-1.566-6.464-1.855z"/><path fill="#F8A70F" d="M42.352 21.791l.439-3.355c3.196.373 4.796.829 7.65 2.275l-1.646 2.997c-2.406-1.219-3.75-1.603-6.443-1.917z"/><path fill="#F8A60F" d="M42.536 21.813c.189-1.341.285-2.01.475-3.351 3.192.402 4.785.872 7.625 2.348l-1.676 2.981c-2.394-1.243-3.733-1.638-6.424-1.978z"/><path fill="#F7A410" d="M42.721 21.837l.508-3.346c3.188.432 4.774.916 7.6 2.421l-1.706 2.965c-2.382-1.268-3.716-1.676-6.402-2.04z"/><path fill="#F7A210" d="M42.903 21.863c.217-1.337.324-2.005.542-3.342 3.184.461 4.766.96 7.575 2.496l-1.733 2.948c-2.368-1.293-3.701-1.713-6.384-2.102z"/><path fill="#F7A111" d="M43.086 21.891c.23-1.335.347-2.002.578-3.336 3.18.491 4.758 1.004 7.551 2.569l-1.767 2.932c-2.354-1.319-3.684-1.752-6.362-2.165z"/><path fill="#F79F11" d="M43.27 21.919l.611-3.331c3.174.52 4.746 1.048 7.523 2.642l-1.798 2.915c-2.34-1.342-3.663-1.788-6.336-2.226z"/><path fill="#F79D12" d="M43.451 21.95l.647-3.325c3.168.549 4.733 1.092 7.494 2.715l-1.826 2.897c-2.327-1.366-3.646-1.824-6.315-2.287z"/><path fill="#F79B12" d="M43.633 21.983c.271-1.328.408-1.992.68-3.319 3.163.579 4.723 1.136 7.467 2.789l-1.854 2.88c-2.313-1.393-3.629-1.863-6.293-2.35z"/><path fill="#F79A13" d="M43.817 22.017l.713-3.312c3.156.608 4.711 1.18 7.438 2.862l-1.885 2.862c-2.298-1.418-3.606-1.9-6.266-2.412z"/><path fill="#F69813" d="M43.997 22.053l.747-3.306c3.15.638 4.701 1.225 7.41 2.936l-1.913 2.844c-2.284-1.443-3.59-1.937-6.244-2.474z"/><path fill="#F69614" d="M44.178 22.09c.312-1.32.471-1.979.783-3.299 3.144.667 4.687 1.269 7.378 3.009-.777 1.13-1.167 1.694-1.944 2.825-2.269-1.466-3.569-1.973-6.217-2.535z"/><path fill="#F69414" d="M44.359 22.129l.816-3.292c3.137.696 4.672 1.312 7.346 3.083l-1.973 2.806c-2.253-1.491-3.546-2.01-6.189-2.597z"/><path fill="#F69314" d="M44.54 22.17l.85-3.284c3.129.726 4.659 1.356 7.314 3.155l-2.001 2.787c-2.238-1.515-3.526-2.046-6.163-2.658z"/><path fill="#F69115" d="M44.721 22.213l.882-3.276c3.121.755 4.646 1.4 7.282 3.229l-2.028 2.768c-2.223-1.541-3.507-2.085-6.136-2.721z"/><path fill="#F68F15" d="M44.899 22.257l.917-3.268c3.114.784 4.631 1.445 7.249 3.303-.822 1.1-1.235 1.648-2.058 2.748-2.206-1.565-3.485-2.122-6.108-2.783z"/><path fill="#F68E16" d="M45.081 22.304l.948-3.259c3.106.813 4.616 1.489 7.215 3.376l-2.087 2.727c-2.19-1.59-3.46-2.159-6.076-2.844z"/><path fill="#F58C16" d="M45.257 22.351l.984-3.25c3.098.843 4.599 1.533 7.178 3.45l-2.113 2.707c-2.174-1.616-3.44-2.197-6.049-2.907z"/><path fill="#F58A17" d="M45.436 22.4l1.015-3.241c3.088.872 4.586 1.577 7.146 3.523a5026.61 5026.61 0 0 1-2.14 2.686c-2.158-1.639-3.42-2.233-6.021-2.968z"/><path fill="#F58817" d="M45.613 22.452l1.05-3.231c3.079.901 4.567 1.621 7.106 3.596l-2.168 2.665c-2.139-1.665-3.394-2.271-5.988-3.03z"/><path fill="#F58718" d="M45.791 22.504l1.082-3.221c3.069.931 4.551 1.665 7.069 3.669l-2.194 2.644c-2.123-1.689-3.371-2.307-5.957-3.092z"/><path fill="#F58518" d="M45.968 22.559l1.116-3.211c3.061.96 4.533 1.709 7.031 3.743l-2.222 2.622c-2.104-1.714-3.347-2.345-5.925-3.154z"/><path fill="#F58319" d="M46.143 22.615l1.147-3.201c3.051.99 4.518 1.753 6.995 3.817l-2.25 2.6c-2.088-1.739-3.323-2.382-5.892-3.216z"/><path fill="#F58119" d="M46.316 22.673l1.182-3.19c3.04 1.019 4.499 1.797 6.955 3.89l-2.275 2.577c-2.071-1.763-3.301-2.419-5.862-3.277z"/><path fill="#F4801A" d="M46.492 22.732c.485-1.272.729-1.907 1.215-3.179 3.029 1.048 4.479 1.841 6.913 3.963l-2.301 2.555c-2.051-1.787-3.275-2.455-5.827-3.339z"/><path fill="#F47E1A" d="M46.667 22.794l1.247-3.167c3.018 1.078 4.459 1.885 6.871 4.036l-2.327 2.532c-2.032-1.813-3.249-2.493-5.791-3.401z"/><path fill="#F47C1B" d="M46.84 22.856l1.279-3.156c3.008 1.107 4.44 1.929 6.831 4.11l-2.354 2.509c-2.015-1.837-3.223-2.53-5.756-3.463z"/><path fill="#F47B1B" d="M47.015 22.921l1.311-3.144c2.996 1.137 4.42 1.973 6.788 4.183-.951.994-1.428 1.49-2.379 2.485-1.997-1.862-3.197-2.566-5.72-3.524z"/><path fill="#F4791C" d="M47.186 22.988l1.345-3.131c2.983 1.166 4.397 2.017 6.742 4.256l-2.403 2.461c-1.977-1.886-3.171-2.604-5.684-3.586z"/><path fill="#F4771C" d="M47.357 23.056l1.374-3.119c2.972 1.195 4.378 2.061 6.7 4.33l-2.429 2.437c-1.956-1.912-3.141-2.642-5.645-3.648z"/><path fill="#F4751D" d="M47.527 23.125l1.409-3.105c2.96 1.225 4.355 2.105 6.654 4.403l-2.454 2.412c-1.937-1.936-3.116-2.678-5.609-3.71z"/><path fill="#F3741D" d="M47.699 23.197l1.438-3.092c2.947 1.254 4.333 2.149 6.608 4.477l-2.479 2.387c-1.915-1.962-3.084-2.716-5.567-3.772z"/><path fill="#F3721E" d="M47.868 23.27l1.47-3.079c2.934 1.283 4.313 2.193 6.564 4.55l-2.504 2.362c-1.896-1.985-3.059-2.752-5.53-3.833z"/><path fill="#F3701E" d="M48.036 23.345l1.503-3.064c2.921 1.312 4.291 2.237 6.518 4.624-1.011.935-1.518 1.401-2.528 2.336-1.877-2.012-3.033-2.79-5.493-3.896z"/><path fill="#F36F1F" d="M48.202 23.421c.613-1.221.922-1.83 1.535-3.05 2.907 1.342 4.266 2.281 6.468 4.697l-2.551 2.311c-1.855-2.036-3.004-2.827-5.452-3.958z"/><path fill="#F36D1F" d="M48.371 23.499l1.564-3.036c2.893 1.372 4.244 2.325 6.421 4.771l-2.575 2.285c-1.835-2.061-2.973-2.865-5.41-4.02z"/><path fill="#F36B1F" d="M48.537 23.579l1.596-3.021c2.879 1.401 4.219 2.37 6.371 4.844l-2.597 2.258c-1.813-2.085-2.945-2.901-5.37-4.081z"/><path fill="#F36920" d="M48.701 23.66c.651-1.203.978-1.803 1.629-3.005 2.862 1.432 4.194 2.414 6.321 4.917l-2.621 2.231c-1.792-2.109-2.916-2.937-5.329-4.143z"/><path fill="#F26820" d="M48.866 23.744l1.658-2.99c2.849 1.459 4.17 2.458 6.271 4.991l-2.643 2.204c-1.77-2.135-2.884-2.976-5.286-4.205z"/><path fill="#F26621" d="M49.031 23.829l1.688-2.974c2.834 1.489 4.145 2.502 6.219 5.064l-2.667 2.177c-1.748-2.159-2.851-3.013-5.24-4.267z"/><path fill="#F26421" d="M49.192 23.915l1.719-2.958c2.818 1.518 4.119 2.545 6.167 5.138l-2.688 2.149c-1.726-2.184-2.822-3.05-5.198-4.329z"/><path fill="#F26222" d="M49.355 24.003l1.749-2.941c2.803 1.547 4.093 2.59 6.114 5.211l-2.711 2.121c-1.702-2.208-2.789-3.087-5.152-4.391z"/><path fill="#F26122" d="M49.517 24.093l1.779-2.925c2.786 1.577 4.063 2.633 6.058 5.284l-2.73 2.093c-1.681-2.233-2.759-3.123-5.107-4.452z"/><path fill="#F25F23" d="M49.676 24.186l1.81-2.907c2.77 1.606 4.038 2.678 6.005 5.357l-2.754 2.063c-1.658-2.258-2.726-3.16-5.061-4.513z"/><path fill="#F25D23" d="M49.834 24.278l1.839-2.89c2.754 1.636 4.011 2.722 5.95 5.431l-2.774 2.035c-1.635-2.282-2.694-3.198-5.015-4.576z"/><path fill="#F15C24" d="M49.994 24.374l1.868-2.872c2.737 1.665 3.981 2.766 5.894 5.505l-2.795 2.005c-1.61-2.308-2.66-3.236-4.967-4.638z"/><path fill="#F15A24" d="M50.151 24.47l1.896-2.854c2.719 1.694 3.955 2.81 5.838 5.577l-2.815 1.976c-1.587-2.332-2.627-3.272-4.919-4.699z"/><path fill="#F15825" d="M50.306 24.568l1.928-2.835c2.702 1.724 3.926 2.854 5.78 5.651l-2.836 1.946c-1.563-2.357-2.595-3.309-4.872-4.762z"/><path fill="#F15625" d="M50.463 24.668l1.954-2.817c2.685 1.753 3.895 2.898 5.721 5.725l-2.854 1.916c-1.538-2.382-2.559-3.346-4.821-4.824z"/><path fill="#F15526" d="M50.615 24.77l1.984-2.798c2.666 1.783 3.865 2.942 5.662 5.799l-2.875 1.885c-1.513-2.406-2.524-3.384-4.771-4.886z"/><path fill="#F15326" d="M50.769 24.874l2.012-2.779c2.647 1.812 3.835 2.986 5.603 5.872l-2.893 1.854C54.001 27.39 53 26.4 50.769 24.874z"/><path fill="#F15127" d="M50.921 24.979l2.042-2.759c2.629 1.841 3.805 3.03 5.543 5.946l-2.913 1.823c-1.464-2.457-2.455-3.459-4.672-5.01z"/><path fill="#F04F27" d="M51.072 25.086l2.069-2.739c2.609 1.87 3.772 3.074 5.48 6.018l-2.932 1.792c-1.437-2.481-2.418-3.495-4.617-5.071z"/><path fill="#F04E28" d="M51.222 25.195l2.097-2.719c2.591 1.9 3.743 3.118 5.42 6.092l-2.951 1.76c-1.414-2.506-2.383-3.533-4.566-5.133z"/><path fill="#F04C28" d="M51.371 25.305l2.124-2.698c2.571 1.929 3.709 3.162 5.355 6.165L55.882 30.5c-1.386-2.53-2.345-3.569-4.511-5.195z"/><path fill="#F04A29" d="M51.517 25.417l2.154-2.677c2.551 1.958 3.677 3.207 5.293 6.239l-2.985 1.695c-1.362-2.556-2.313-3.607-4.462-5.257z"/><path fill="#F04929" d="M51.664 25.531l2.181-2.656c2.531 1.988 3.643 3.25 5.227 6.312l-3.003 1.663c-1.336-2.581-2.272-3.644-4.405-5.319z"/><path fill="#F04729" d="M51.81 25.646l2.207-2.634c2.511 2.018 3.61 3.295 5.163 6.387l-3.02 1.629c-1.307-2.606-2.234-3.683-4.35-5.382z"/><path fill="#F0452A" d="M51.954 25.763l2.233-2.613c2.489 2.046 3.576 3.338 5.098 6.459l-3.037 1.596c-1.281-2.63-2.196-3.718-4.294-5.442z"/><path fill="#EF432A" d="M52.096 25.882l2.261-2.59c2.469 2.076 3.54 3.382 5.029 6.532l-3.051 1.562c-1.254-2.655-2.159-3.755-4.239-5.504z"/><path fill="#EF422B" d="M52.238 26.002l2.286-2.568c2.447 2.105 3.508 3.427 4.964 6.605l-3.069 1.528c-1.227-2.678-2.118-3.791-4.181-5.565z"/><path fill="#EF402B" d="M52.38 26.125l2.312-2.545c2.425 2.135 3.472 3.47 4.896 6.678l-3.085 1.494c-1.2-2.704-2.08-3.829-4.123-5.627z"/><path fill="#EF3E2C" d="M52.519 26.248l2.337-2.522c2.403 2.164 3.438 3.515 4.828 6.753l-3.1 1.458c-1.172-2.728-2.04-3.866-4.065-5.689z"/><path fill="#EF3C2C" d="M52.656 26.374l2.362-2.499c2.382 2.193 3.4 3.559 4.758 6.826l-3.114 1.424c-1.143-2.753-1.999-3.903-4.006-5.751z"/><path fill="#EF3B2D" d="M52.791 26.5l2.391-2.475c2.358 2.223 3.363 3.602 4.687 6.899l-3.127 1.389c-1.116-2.777-1.964-3.939-3.951-5.813z"/><path fill="#EF392D" d="M52.929 26.63l2.414-2.451c2.335 2.252 3.326 3.646 4.615 6.973-1.256.542-1.886.812-3.142 1.353-1.086-2.803-1.92-3.978-3.887-5.875z"/><path fill="#EF372E" d="M53.06 26.76l2.44-2.426c2.312 2.282 3.289 3.69 4.545 7.046l-3.156 1.317c-1.058-2.827-1.881-4.014-3.829-5.937z"/><path fill="#EE362E" d="M53.193 26.892l2.464-2.401c2.289 2.311 3.251 3.735 4.472 7.12l-3.169 1.281c-1.028-2.853-1.838-4.053-3.767-6z"/><path fill="#EE342F" d="M53.324 27.026l2.489-2.376c2.266 2.34 3.212 3.779 4.397 7.194l-3.181 1.244c-.998-2.878-1.796-4.09-3.705-6.062z"/><path fill="#EE322F" d="M53.454 27.162l2.514-2.351c2.24 2.37 3.171 3.823 4.322 7.266l-3.194 1.208c-.97-2.902-1.754-4.126-3.642-6.123z"/><path fill="#EE3030" d="M53.581 27.299c1.015-.931 1.524-1.395 2.539-2.325 2.216 2.399 3.132 3.867 4.247 7.34l-3.205 1.17c-.94-2.927-1.713-4.164-3.581-6.185z"/><path fill="#EE2F30" d="M53.711 27.438l2.562-2.299c2.191 2.428 3.092 3.911 4.171 7.413l-3.22 1.133c-.91-2.951-1.667-4.2-3.513-6.247z"/><path fill="#EE2D31" d="M53.836 27.579l2.584-2.273c2.166 2.458 3.053 3.955 4.097 7.487l-3.23 1.095c-.88-2.976-1.626-4.238-3.451-6.309z"/><path fill="#EE2B31" d="M53.96 27.721l2.606-2.247c2.142 2.487 3.013 3.999 4.02 7.56l-3.24 1.057c-.849-3-1.582-4.274-3.386-6.37z"/><path fill="#ED2932" d="M54.081 27.865l2.631-2.22c2.115 2.517 2.971 4.043 3.941 7.633l-3.251 1.018c-.817-3.024-1.538-4.311-3.321-6.431z"/><path fill="#ED2832" d="M54.201 28.011l2.654-2.192c2.09 2.546 2.93 4.087 3.863 7.708l-3.263.979c-.785-3.051-1.493-4.35-3.254-6.495z"/><path fill="#ED2633" d="M54.322 28.159l2.677-2.165c2.063 2.575 2.885 4.131 3.781 7.78l-3.272.94c-.755-3.074-1.447-4.385-3.186-6.555z"/><path fill="#ED2433" d="M54.442 28.308l2.696-2.137c2.036 2.604 2.845 4.175 3.703 7.854l-3.281.901c-.722-3.1-1.402-4.423-3.118-6.618z"/><path fill="#ED2333" d="M54.557 28.459l2.72-2.109c2.01 2.634 2.802 4.219 3.622 7.926l-3.289.861c-.692-3.123-1.36-4.459-3.053-6.678z"/><path fill="#ED2134" d="M54.672 28.611l2.742-2.081c1.982 2.663 2.756 4.263 3.539 8l-3.298.821c-.659-3.147-1.313-4.496-2.983-6.74z"/><path fill="#ED1F34" d="M54.786 28.766l2.764-2.051c1.955 2.692 2.713 4.307 3.457 8.073l-3.308.781c-.627-3.174-1.265-4.534-2.913-6.803z"/><path fill="#EC1D35" d="M54.897 28.922l2.784-2.022c1.928 2.722 2.668 4.352 3.373 8.147l-3.314.74c-.594-3.199-1.219-4.572-2.843-6.865z"/><path fill="#EC1C35" d="M55.008 29.079l2.804-1.993c1.899 2.751 2.624 4.396 3.29 8.221l-3.323.699c-.562-3.223-1.171-4.609-2.771-6.927z"/><path fill="#EC1A36" d="M55.115 29.238l2.823-1.963c1.871 2.781 2.58 4.44 3.207 8.295l-3.328.657c-.528-3.248-1.125-4.645-2.702-6.989z"/><path fill="#EC1836" d="M55.223 29.399l2.844-1.933c1.842 2.81 2.534 4.483 3.121 8.367l-3.336.616c-.495-3.272-1.077-4.682-2.629-7.05z"/><path fill="#EC1637" d="M55.329 29.562l2.864-1.903c1.813 2.839 2.485 4.528 3.032 8.441l-3.341.574c-.46-3.297-1.028-4.719-2.555-7.112z"/><path fill="#EC1537" d="M55.432 29.727l2.883-1.872c1.784 2.869 2.442 4.572 2.949 8.514l-3.35.532c-.427-3.322-.979-4.757-2.482-7.174z"/><path fill="#EC1338" d="M55.535 29.893l2.902-1.841c1.754 2.898 2.393 4.615 2.858 8.587l-3.353.489c-.391-3.346-.928-4.793-2.407-7.235z"/><path fill="#EB1138" d="M55.634 30.061c1.168-.724 1.753-1.085 2.921-1.81 1.725 2.928 2.348 4.66 2.773 8.661l-3.359.446c-.359-3.371-.882-4.831-2.335-7.297z"/><path fill="#EB1039" d="M55.733 30.23l2.938-1.778c1.694 2.957 2.3 4.705 2.684 8.736l-3.363.403c-.325-3.397-.831-4.869-2.259-7.361z"/><path fill="#EB0E39" d="M55.828 30.401l2.959-1.746c1.664 2.986 2.248 4.748 2.591 8.808l-3.365.36c-.289-3.422-.783-4.906-2.185-7.422z"/><path fill="#EB0C3A" d="M55.924 30.574l2.977-1.714c1.633 3.016 2.2 4.792 2.501 8.881l-3.369.316c-.255-3.445-.733-4.942-2.109-7.483z"/><path fill="#EB0A3A" d="M56.018 30.749l2.99-1.681c1.603 3.045 2.152 4.836 2.411 8.955l-3.372.271c-.218-3.471-.68-4.98-2.029-7.545z"/><path fill="#EB093B" d="M56.108 30.924l3.009-1.648c1.571 3.075 2.104 4.88 2.32 9.029l-3.376.227c-.182-3.495-.628-5.017-1.953-7.608z"/><path fill="#EB073B" d="M56.197 31.103l3.027-1.615c1.539 3.104 2.052 4.924 2.226 9.102l-3.377.183c-.146-3.521-.579-5.055-1.876-7.67z"/><path fill="#EA053C" d="M56.285 31.282L59.33 29.7c1.507 3.133 1.999 4.969 2.13 9.176l-3.378.137c-.109-3.545-.526-5.091-1.797-7.731z"/><path fill="#EA033C" d="M56.372 31.464l3.06-1.547c1.475 3.162 1.949 5.012 2.036 9.248l-3.38.092c-.073-3.57-.474-5.129-1.716-7.793z"/><path fill="#EA023D" d="M56.455 31.647l3.076-1.513c1.442 3.192 1.898 5.056 1.941 9.321l-3.381.046c-.036-3.594-.421-5.165-1.636-7.854z"/><path fill="#EA003D" d="M56.539 31.831l3.088-1.479c1.41 3.221 1.847 5.1 1.847 9.395h-3.381c0-3.619-.366-5.202-1.554-7.916z"/><circle fill="#EAEAEA" cx="39" cy="42" r="5"/><path d="M42.336 44.166l7.175-17.891c.888-2.214.488-2.431-.888-.483l-8.12 11.499c-1.376 1.948-3.103 3.655-3.837 3.792L36.5 43.5c-.113 1.646 3.5 3.75 5.836.666z" opacity=".6"/><path fill="#A5A5A5" d="M42.336 42.166L49.55 25.24c.935-2.194.525-2.431-.91-.526L40.611 35.37c-1.436 1.905-3.135 4.438-3.775 5.63l1.166 1.167c1.166 1.167 3.002 1.165 4.334-.001z"/><radialGradient id="a" cx="38.667" cy="42.334" r="4.385" gradientUnits="userSpaceOnUse"><stop offset="0" stop-color="#fff"/><stop offset="1" stop-color="#989a9d"/></radialGradient><circle opacity=".2" fill="url(#a)" cx="39" cy="42.25" r="4.25"/><circle fill="#F7F7F7" cx="39.001" cy="42.166" r="3.335"/><path opacity=".5" fill="#FFF" d="M49.625 23.938l-10.5 16.688s-1.5 0-.875-1.25 11.375-15.438 11.375-15.438z"/></svg>