<svg xmlns="http://www.w3.org/2000/svg" width="80" height="80" viewBox="0 0 80 80"><path fill="#FF8DF4" d="M86.312 3.97c0-5.782-4.686-10.47-10.468-10.47H4.78C-.999-6.5-5.688-1.812-5.688 3.97v71.062c0 5.782 4.689 10.468 10.469 10.468h71.063c5.782 0 10.468-4.687 10.468-10.468V3.97z"/><path fill="#EDEDED" d="M45.174 57.906H34.809a1.315 1.315 0 0 0 0 2.63h10.365a1.314 1.314 0 1 0 0-2.63zm-.236 4.38h-9.891a1.314 1.314 0 1 0 0 2.631h9.891a1.316 1.316 0 0 0 0-2.631zm-9.825 4.318c2.562 2.367 2.826 2.843 3.848 2.843h1.969c1 0 1.246-.439 3.939-2.843h-9.756z"/><path fill="#FFFF15" d="M54.967 35.086c0 8.906-7.66 13.897-7.66 20.924H32.676c0-7.027-7.658-12.019-7.658-20.924 0-19.143 29.949-19.161 29.949 0z"/><path fill="#FFF" d="M38.305 10.552h3.582v6.447h-3.582zm12.725 1.733l3.157 1.694-3.154 5.876-3.156-1.694zm10.235 7.657l2.086 2.913-5.735 4.107-2.086-2.913zM57.54 42.84l6.45 2.612-1.345 3.319-6.45-2.612zm1.28-10.052h7.311v3.582H58.82zM28.966 12.284l3.152 5.875-3.158 1.695-3.152-5.876zm-10.231 7.653l5.733 4.109-2.087 2.912-5.733-4.108zm3.668 22.638l1.47 3.266-6.447 2.902-1.47-3.266zm-8.534-9.787h7.311v3.582h-7.311z"/></svg>