<svg xmlns="http://www.w3.org/2000/svg" xmlns:xlink="http://www.w3.org/1999/xlink" width="80" height="80" viewBox="0 0 80 80"><path fill="#0BF9FF" d="M84.5 6.309C84.5.34 80.019-4.5 74.488-4.5H6.515C.983-4.5-3.5.34-3.5 6.309V79.69C-3.5 85.66.983 90.5 6.515 90.5h67.974c5.53 0 10.012-4.84 10.012-10.811V6.309z"/><defs><path id="a" d="M84.5 6.309C84.5.34 80.019-4.5 74.488-4.5H6.515C.983-4.5-3.5.34-3.5 6.309V79.69C-3.5 85.66.983 90.5 6.515 90.5h67.974c5.53 0 10.012-4.84 10.012-10.811V6.309z"/></defs><clipPath id="b"><use xlink:href="#a" overflow="visible"/></clipPath><linearGradient id="c" gradientUnits="userSpaceOnUse" x1="38.469" y1="27.894" x2="38.469" y2="83.462"><stop offset="0" stop-color="#29abe2"/><stop offset="1" stop-color="#29abe2" stop-opacity="0"/></linearGradient><path opacity=".5" clip-path="url(#b)" fill="url(#c)" d="M-14.331-13.269H91.27V87.578H-14.331z"/><path fill-rule="evenodd" clip-rule="evenodd" fill="#FFF" d="M67.991 43h-2.133c-.184-4-3.252-6.729-7.023-6.729-.742 0-1.455.097-2.128.309.005-.11.016-.228.016-.34 0-6.223-5.044-11.27-11.266-11.27-4.056 0-7.602 2.148-9.586 5.365a8.757 8.757 0 0 0-2.737-.441c-3.988 0-7.354 2.656-8.437 6.295-.675-.198-1.386-.269-2.125-.269-4.002 0-7.271 3.08-7.544 7.08h-3.02c-2.916 0-5.279 2.084-5.279 5 0 2.918 2.363 5 5.279 5H67.99c2.915 0 5.279-2.082 5.279-5 .002-2.916-2.363-5-5.278-5z"/></svg>