<svg xmlns="http://www.w3.org/2000/svg" width="80" height="80" viewBox="0 0 80 80"><path fill="#39B5E5" d="M82.484 8.061c0-5.372 7.516-9.727-9.99-9.727H4.659c-17.326 0-9.992 4.355-9.992 9.727V74.09c0 5.371 4.474 9.726 9.992 9.726h67.835c5.518 0 9.99-4.355 9.99-9.726V8.061z"/><path opacity=".3" fill="#2D6B9E" d="M87.001 84.333H23.706L10.369 55.232h59.299z"/><path fill="#E2DDD3" d="M9.927 18.045h53.995v35.543H9.927z"/><path fill="#FFF" d="M15.396 57.006l54.677-2.735V15.312H15.396z"/><path fill="#FFF" d="M16.078 47.052a3.032 3.032 0 0 0-3.033-3.033h-.085a3.032 3.032 0 0 0-3.033 3.033v8.288a3.031 3.031 0 0 0 3.033 3.032h.085a3.03 3.03 0 0 0 3.033-3.032v-8.288zm53.995 0a3.032 3.032 0 0 0-3.032-3.033h-.086a3.032 3.032 0 0 0-3.033 3.033v8.288a3.031 3.031 0 0 0 3.033 3.032h.086a3.03 3.03 0 0 0 3.032-3.032v-8.288z"/><path fill="#E2DDD3" d="M15.396 46.752a2.734 2.734 0 1 0-5.468 0v8.203a2.734 2.734 0 0 0 5.468 0v-8.203z"/><path fill="#FFF" d="M14.939 57.121c1.367-1.256 1.139-3.533 1.139-3.533H69.39l-2.735 4.784H12.66"/><path fill="#E2DDD3" d="M9.927 27.614h5.469v23.923H9.927z"/><path fill="#9DD7F4" d="M40.001 30.348H67.34v12.989H40.001z"/><path fill="#BCBCBC" d="M18.812 31.034H37.95v1.365H18.812zm0 5.467H37.95v1.367H18.812zm0 5.466H37.95v1.371H18.812zm0 5.471H67.34v1.365H18.812zm0 5.468H67.34v1.365H18.812z"/><path fill="none" d="M20.691 19.072h46.648v7.689H20.691z"/><text transform="translate(31 26.31)" fill="#626382" font-family="'SourceSansPro-Semibold'" font-size="10.252">NEWS</text><path fill="#626382" d="M57.771 22.149h9.568v1.365h-9.568zm-38.275 0h10.252v1.365H19.496z"/></svg>