<svg xmlns="http://www.w3.org/2000/svg" width="80" height="80" viewBox="0 0 80 80"><path fill="#00B3EA" d="M83.5 2.524C83.5-3.287 79.018-8 73.489-8H5.514C-.017-8-4.5-3.287-4.5 2.524v71.451C-4.5 79.788-.017 84.5 5.514 84.5H73.49c5.528 0 10.011-4.712 10.011-10.525V2.524z"/><g fill-rule="evenodd" clip-rule="evenodd" fill="#FFF"><path d="M51.627 45.982c.49.069.572-.228.697-.528.33-.811.699-1.604 1.045-2.409.422-.978.832-1.96 1.252-2.938.471-1.092.947-2.182 1.418-3.274.445-1.032.887-2.064 1.334-3.098.539-1.25 1.084-2.503 1.623-3.756.334-.777.662-1.56 1.004-2.368-1.26-.308-2.23-1.104-3.305-1.704a28.752 28.752 0 0 0-3.207-1.549c-2.197-.895-4.527-1.15-6.867-1.324-1.143-.084-2.289-.142-3.434-.209-.123-.007-.246-.001-.395-.001-.02.178-.045.325-.051.476-.018.43-.061.87-.395 1.217-.188.192-.246.164-.383.851h-3.855c-.244-.687-.482-.783-.674-1.15-.096-.181-.117-.427-.148-.636-.035-.233-.041-.482-.059-.661-.895 0-1.754-.065-2.602.008a84.167 84.167 0 0 0-4.955.561c-1.256.184-2.465.579-3.652 1.044-1.555.609-2.926 1.532-4.34 2.39-.5.301-1.064.491-1.639.75.086.221.182.497.301.765.533 1.229 1.078 2.451 1.609 3.683.451 1.045.879 2.101 1.332 3.146.451 1.046.926 2.083 1.379 3.127.334.769.648 1.547.98 2.314.479 1.102.971 2.197 1.451 3.3.219.505.438 1.012.623 1.528.104.289.219.508.598.443.068.757-.232 1.356-.689 1.892-.672.786-1.588 1.164-2.543 1.446-2.754.812-5.582.757-8.4.603-1.285-.072-2.57-.325-3.824-.623-.977-.23-1.885-.683-2.568-1.479-.447-.521-.625-1.123-.678-1.811l.449-.056 7.877-18.254c-2.184-.472-2.834-2.706-2.135-4.51.127-.328.35-.614.777-.617.418-.006.641.171.66.589.021.429.004.855.029 1.282.033.563.311.962.846 1.18.311.129.607.268.865-.141.221.377.527.311.834.232 1.133-.292 2.135-.862 3.107-1.485 1.609-1.036 3.168-2.159 4.826-3.11 1.545-.887 3.23-1.492 4.986-1.858 1.537-.32 3.076-.633 4.684-.964.121-.853.557-1.617 1.484-2.092-.553-.64-.559-1.385-.309-2.096.264-.74.65-1.436.994-2.146.113-.234.254-.454.441-.78.412.837.795 1.602 1.166 2.369.266.554.449 1.13.312 1.748-.068.309-.213.6-.334.929.818.44 1.299 1.174 1.418 2.138.564.095 1.107.2 1.654.271 1.777.229 3.508.665 5.197 1.241a19.473 19.473 0 0 1 4.471 2.216c1.355.898 2.693 1.825 4.086 2.666.666.403 1.43.657 2.164.937.443.168.58.108.859-.19.246.338.541.268.875.12.451-.201.754-.519.812-1.001.053-.446.045-.903.043-1.355-.002-.307.096-.577.385-.668.307-.098.627-.049.848.246.385.509.488 1.111.488 1.712.002 1.278-.494 2.308-1.688 2.906-.209.105-.445.151-.703.236.145.356.283.716.436 1.069.586 1.357 1.172 2.712 1.762 4.067.535 1.229 1.076 2.454 1.605 3.685.451 1.044.887 2.096 1.336 3.143.42.978.846 1.952 1.27 2.928.441 1.011.895 2.014 1.318 3.032.109.269.248.411.578.356-.029.869-.32 1.583-.961 2.138-1.098.953-2.441 1.302-3.828 1.551-2.449.441-4.92.376-7.385.23-1.447-.083-2.879-.337-4.223-.913-.965-.415-1.799-1.005-2.164-2.055-.093-.291-.123-.601-.195-.952zm18.016-.01c-2.637-6.181-5.256-12.183-7.861-18.224l-1.479-.089c-2.633 6.096-5.262 12.132-7.91 18.312l17.25.001zM18.227 27.754C15.615 33.805 13 39.792 10.369 45.972h17.24c-2.65-6.181-5.281-12.23-7.906-18.31-.502.033-.963.059-1.476.092zm22.621-7.233a.851.851 0 0 0-.838-.834.85.85 0 0 0-.848.821.816.816 0 0 0 .816.85c.502.009.868-.345.87-.837z"/><path d="M38.223 26.053h3.439v24.039h-3.439V26.053zm15.314 39.838H26.568c.09-.688.553-1.61 1.197-2.135a3.755 3.755 0 0 1 2.412-.854c6.549-.002 13.104-.023 19.654-.01 1.322.002 2.424.571 3.158 1.704.23.355.349.607.548 1.295zm-16.623-7.556c.1-1.374.168-2.542.299-3.749.107-.983.297-1.999.436-2.979.049-.348.166-.527.568-.519 1.244.034 2.49.009 3.734-.001.211-.002.305.138.363.346.359 1.269.803 5.528.691 6.902h-6.091zm-3.482 3.434c-.002-1.374.859-2.096 1.828-2.16.652-.044 1.311-.09 1.965-.09 2.371-.003 4.74-.027 7.109-.034 1.006-.005 1.689.584 2.115 1.459.102.205.113.138.176.825H33.432zm3.664-48.759c0 1.601 1.299 2.9 2.906 2.9 1.604 0 2.904-1.3 2.904-2.9a2.903 2.903 0 0 0-2.904-2.901 2.903 2.903 0 0 0-2.906 2.901z"/></g></svg>