<svg xmlns="http://www.w3.org/2000/svg" xmlns:xlink="http://www.w3.org/1999/xlink" width="80" height="80" viewBox="0 0 80 80"><path fill="#232D33" d="M84 4.611C84-1.065 79.117-6 73.504-6H4.162C-1.451-6-6-1.065-6 4.611v70.111C-6 80.398-1.451 85 4.162 85h69.342C79.117 85 84 80.398 84 74.722V4.611z"/><image overflow="visible" opacity=".75" width="80" height="30" xlink:href="DCD439D508BC18BA.png" transform="translate(1.2 24)"/><path fill="#FEFFE6" d="M6.967 29.894h66.61v16.652H6.967z"/><path d="M12.115 40.494l1.114-1.883-1.96-.864.366-1.153 2.094.53L13.94 35h1.211l.211 2.123 2.114-.505.365 1.141-1.979.858 1.114 1.88-.979.709-1.441-1.673-1.46 1.672-.981-.711zm10.286 0l1.114-1.883-1.96-.864.366-1.153 2.094.53.212-2.124h1.211l.211 2.123 2.113-.505.366 1.141-1.979.858 1.114 1.88-.979.709-1.441-1.673-1.461 1.672-.981-.711zm10.287 0l1.114-1.883-1.96-.864.365-1.153 2.094.53.212-2.124h1.21l.212 2.123 2.113-.505.366 1.141-1.98.858 1.115 1.88-.979.709-1.442-1.673-1.46 1.672-.98-.711zm10.285 0l1.115-1.883-1.96-.864.365-1.153 2.094.53.212-2.124h1.21l.212 2.123 2.113-.505.365 1.141-1.979.858 1.114 1.88-.979.709-1.442-1.673-1.46 1.672-.98-.711zm10.286 0l1.114-1.883-1.959-.864.365-1.153 2.094.53.211-2.124h1.211l.211 2.123 2.114-.505.365 1.141-1.979.858 1.114 1.88-.979.709-1.441-1.673-1.46 1.672-.981-.711zm10.286 0l1.114-1.883-1.96-.864.366-1.153 2.094.53L65.37 35h1.211l.211 2.123 2.114-.505.365 1.141-1.979.858 1.114 1.88-.979.709-1.441-1.673-1.46 1.672-.981-.711z" fill="#FF223D"/></svg>