<svg xmlns="http://www.w3.org/2000/svg" width="80" height="80" viewBox="0 0 80 80"><path fill="#5A89FF" d="M84.75 6.391C84.75.79 80.127-3.75 74.425-3.75h-70.1C-1.377-3.75-6 .79-6 6.391v68.843c0 5.601 4.623 10.141 10.325 10.141h70.1c5.702 0 10.325-4.541 10.325-10.141V6.391z"/><path fill="none" stroke="#FFF" stroke-miterlimit="10" d="M76.617 70.138a6.48 6.48 0 0 1-6.479 6.478H9.861a6.48 6.48 0 0 1-6.479-6.478V9.861a6.478 6.478 0 0 1 6.479-6.477h60.277a6.479 6.479 0 0 1 6.479 6.477v60.277z"/><path fill="#FFF" d="M40 45.072L17 30.993V52h46V30.993z"/><path fill="#FFF" d="M62.418 27.864v-.485H17.582v.485L40 41.944z"/></svg>